<svg xmlns="http://www.w3.org/2000/svg" version="1.1" xmlns:xlink="http://www.w3.org/1999/xlink" xmlns:svgjs="http://svgjs.dev/svgjs" viewBox="0 0 800 800"><g stroke-width="1.5" stroke="currentColor" fill="none" stroke-linecap="round"><path d="M92.18 78.55Q101.82 78.7 111.46 79.21 121.1 80.05 130.74 81.22 140.38 82.66 150.02 84.36 159.66 86.26 169.31 88.31 178.95 90.46 188.59 92.65 198.23 94.83 207.87 96.93 217.51 98.89 227.15 100.68 236.79 102.23 246.43 103.51 256.07 104.49 265.72 105.13 275.36 105.43 285 105.36 294.64 104.95 304.28 104.19 313.92 103.1 323.56 101.72 333.2 100.09 342.84 98.23 352.48 96.22 362.12 94.09 371.77 91.9 381.41 89.72 391.05 87.59 400.69 85.59 410.33 83.75 419.97 82.14 429.61 80.78 439.25 79.72 448.89 78.99 458.53 78.61 468.17 78.58 477.82 78.9 487.46 79.58 497.1 80.58 506.74 81.88 516.38 83.46 526.02 85.26 535.66 87.24 545.3 89.35 554.94 91.53 564.58 93.71 574.23 95.86 583.87 97.9 593.51 99.78 603.15 101.46 612.79 102.89 622.43 104.02 632.07 104.84 641.71 105.32 651.35 105.44 660.99 105.21 670.63 104.62 680.28 103.7 689.92 102.47 699.56 100.96 709.2 99.21 721.85 109.03 732.99 118.85 741.41 128.67 746.17 138.49 746.77 148.31 743.14 158.12 735.67 167.94 725.18 177.76 712.81 187.58 699.92 197.4 687.91 207.22 678.09 217.04 671.54 226.85 668.96 236.67 670.65 246.49 676.41 256.31 685.62 266.13 697.27 275.95 710.09 285.77 722.68 295.59 733.67 305.4 741.86 315.22 746.35 325.04 746.65 334.86 742.74 344.68 735.03 354.5 724.37 364.32 711.93 374.13 699.05 383.95 687.15 393.77 677.53 403.59 671.23 413.41 668.94 423.23 670.92 433.05 676.94 442.87 686.35 452.68 698.13 462.5 710.98 472.32 723.51 482.14 734.34 491.96 742.3 501.78 746.51 511.6 746.52 521.41 742.32 531.23 734.38 541.05 723.56 550.87 711.04 560.69 698.19 570.51 686.4 580.33 676.98 590.15 670.94 599.96 668.94 609.78 671.21 619.6 677.49 629.42 687.1 639.24 699 649.06 711.87 658.88 724.32 668.69 734.99 678.51 742.71 688.33 746.65 698.15 746.36 707.97 741.89 717.79 733.72 727.61 723.75 732.36 713.78 736.46 703.82 739.8 693.85 742.31 683.89 743.9 673.92 744.53 663.96 744.2 653.99 742.91 644.02 740.68 634.06 737.59 624.09 733.72 614.13 729.16 604.16 724.04 594.2 718.49 584.23 712.67 574.26 706.72 564.3 700.8 554.33 695.08 544.37 689.7 534.4 684.8 524.44 680.52 514.47 676.97 504.5 674.24 494.54 672.41 484.57 671.53 474.61 671.61 464.64 672.66 454.68 674.65 444.71 677.52 434.74 681.2 424.78 685.6 414.81 690.59 404.85 696.04 394.88 701.8 384.92 707.74 374.95 713.68 364.98 719.46 355.02 724.95 345.05 729.98 335.09 734.43 325.12 738.18 315.16 741.13 305.19 743.19 295.22 744.33 285.26 744.49 275.29 743.69 265.33 741.94 255.36 739.29 245.4 735.81 235.43 731.59 225.46 726.74 215.5 721.39 205.53 715.69 195.57 709.79 185.6 703.84 175.64 697.99 165.67 692.42 155.7 687.25 145.74 682.64 135.77 678.7 125.81 675.54 115.84 673.24 101.52 667.02 97.84 652.92 97.88 643.66 97.28 634.39 96.1 625.13 94.48 615.86 92.58 606.6 90.63 597.33 88.81 588.07 87.35 578.81 86.4 569.54 86.05 560.28 86.35 551.01 87.27 541.75 88.71 532.49 90.5 523.22 92.46 513.96 94.36 504.69 96.01 495.43 97.22 486.17 97.86 476.9 97.86 467.64 97.22 458.37 96.01 449.11 94.36 439.85 92.45 430.58 90.49 421.32 88.7 412.05 87.27 402.79 86.35 393.52 86.05 384.26 86.4 375 87.36 365.73 88.82 356.47 90.63 347.2 92.59 337.94 94.49 328.68 96.11 319.41 97.28 310.15 97.88 300.88 97.83 291.62 97.15 282.36 95.9 273.09 94.23 263.83 92.31 254.56 90.36 245.3 88.59 236.04 87.19 226.77 86.31 217.51 86.05 208.24 86.45 198.98 87.44 189.71 88.94 180.45 90.77 171.19 92.73 161.92 94.61 152.66 96.21 143.39 97.34 134.13 97.9 124.87 97.81 115.6 97.08 106.34 95.8 97.07 94.1 87.81 92.18 78.55" stroke-dasharray="3 4" transform="rotate(0, 400, 400)" opacity="0.22"></path><path d="M109.29 92.37Q118.72 93.02 128.15 93.99 137.58 95.24 147.01 96.76 156.44 98.5 165.87 100.42 175.3 102.47 184.73 104.61 194.16 106.78 203.59 108.94 213.02 111.02 222.45 112.98 231.88 114.78 241.31 116.36 250.74 117.68 260.17 118.73 269.6 119.47 279.03 119.88 288.46 119.96 297.89 119.7 307.32 119.1 316.75 118.19 326.18 116.99 335.61 115.51 345.04 113.81 354.47 111.92 363.9 109.89 373.33 107.76 382.76 105.59 392.19 103.42 401.62 101.32 411.05 99.34 420.48 97.51 429.91 95.89 439.34 94.52 448.77 93.42 458.2 92.63 467.63 92.16 477.06 92.02 486.49 92.22 495.92 92.76 505.35 93.62 514.78 94.77 524.21 96.2 533.64 97.87 543.07 99.73 552.5 101.74 561.93 103.86 571.36 106.02 580.79 108.19 590.22 110.31 599.65 112.32 609.08 114.17 618.51 115.83 627.94 117.25 637.37 118.4 646.8 119.25 656.23 119.78 665.66 119.97 675.09 119.82 684.52 119.35 693.95 118.54 703.38 117.44 712.81 116.06 722.27 125.49 728.91 134.93 732.08 144.36 731.46 153.8 727.1 163.23 719.46 172.67 709.27 182.1 697.57 191.54 685.51 200.98 674.3 210.41 665.05 219.85 658.67 229.28 655.82 238.72 656.76 248.15 661.41 257.59 669.3 267.02 679.65 276.46 691.43 285.9 703.46 295.33 714.55 304.77 723.6 314.2 729.7 323.64 732.24 333.07 730.98 342.51 726.04 351.94 717.9 361.38 707.39 370.81 695.55 380.25 683.55 389.69 672.59 399.12 663.76 408.56 657.94 417.99 655.71 427.43 657.29 436.86 662.52 446.3 670.89 455.73 681.55 465.17 693.46 474.61 705.42 484.04 716.24 493.48 724.85 502.91 730.38 512.35 732.3 521.78 730.4 531.22 724.88 540.65 716.28 550.09 705.47 559.53 693.52 568.96 681.61 578.4 670.93 587.83 662.55 597.27 657.3 606.7 655.71 616.14 657.92 625.57 663.72 635.01 672.54 644.45 683.49 653.88 695.49 663.32 707.34 672.75 717.86 682.19 726.01 691.62 730.97 701.06 726.16 716.99 710.42 726.34 700.77 728.41 691.13 729.65 681.48 730.02 671.83 729.52 662.18 728.16 652.53 725.97 642.89 723.01 633.24 719.35 623.59 715.07 613.94 710.29 604.29 705.11 594.65 699.66 585 694.07 575.35 688.48 565.7 683.03 556.05 677.84 546.4 673.04 536.76 668.75 527.11 665.07 517.46 662.09 507.81 659.88 498.16 658.5 488.52 657.97 478.87 658.32 469.22 659.53 459.57 661.58 449.92 664.41 440.28 667.95 430.63 672.13 420.98 676.84 411.33 681.96 401.68 687.37 392.04 692.94 382.39 698.54 372.74 704.02 363.09 709.27 353.44 714.14 343.8 718.53 334.15 722.33 324.5 725.43 314.85 727.78 305.2 729.31 295.55 729.99 285.91 729.79 276.26 728.73 266.61 726.83 256.96 724.13 247.31 720.7 237.67 716.63 228.02 712.01 218.37 706.95 208.72 701.58 199.07 696.03 189.43 690.43 179.78 684.91 170.13 679.61 160.48 674.66 150.83 670.18 141.19 666.28 131.54 663.05 117.29 655.3 112.46 641.18 111.59 632.33 110.17 623.48 108.33 614.63 106.26 605.77 104.16 596.92 102.24 588.07 100.7 579.22 99.69 570.37 99.3 561.52 99.58 552.66 100.5 543.81 101.96 534.96 103.83 526.11 105.91 517.26 108 508.41 109.89 499.55 111.4 490.7 112.36 481.85 112.69 473 112.36 464.15 111.39 455.3 109.88 446.44 107.99 437.59 105.9 428.74 103.82 419.89 101.95 411.04 100.49 402.18 99.58 393.33 99.3 384.48 99.69 375.63 100.71 366.78 102.25 357.93 104.17 349.07 106.27 340.22 108.34 331.37 110.18 322.52 111.6 313.67 112.46 304.82 112.68 295.96 112.24 287.11 111.17 278.26 109.59 269.41 107.65 260.56 105.55 251.71 103.49 242.85 101.68 234 100.3 225.15 99.48 216.3 99.32 207.45 99.82 198.6 100.93 189.74 102.55 180.89 104.51 172.04 106.62 163.19 108.67 154.34 110.45 145.49 111.78 136.63 112.55 127.78 112.65 118.93 112.1 110.08 110.94 101.23 109.29 92.37" stroke-dasharray="4 6" transform="rotate(4.809523809523809, 400, 400)" opacity="0.50"></path><path d="M126.25 107.02Q144.54 109.48 162.83 112.86 181.12 116.86 199.41 121.14 217.7 125.31 235.99 129.02 254.28 131.94 272.57 133.82 290.86 134.49 309.15 133.9 327.44 132.09 345.72 129.22 364.01 125.55 382.3 121.4 400.59 117.12 418.88 113.09 437.17 109.66 455.46 107.14 473.75 105.74 492.04 105.59 510.33 106.69 528.62 108.95 546.91 112.18 565.2 116.1 583.49 120.35 601.78 124.57 620.07 128.39 638.36 131.48 656.65 133.57 674.94 134.47 693.23 134.1 711.52 132.51 717.53 150.57 710.28 168.64 692.34 186.71 670.03 204.77 651.25 222.84 642.62 240.9 647.19 258.97 663.35 277.04 685.39 295.1 705.53 313.17 716.64 331.24 714.81 349.3 700.69 367.37 679.25 385.43 658.08 403.5 644.65 421.57 643.7 439.63 655.58 457.7 676.08 475.77 697.96 493.83 713.5 511.9 717.2 529.96 707.76 548.03 688.51 566.1 666.26 584.16 648.85 602.23 642.45 620.3 649.31 638.36 667.01 656.43 689.29 674.49 708.3 692.56 717.3 710.63 698.87 714.53 680.43 715.42 662 713.22 643.56 708.11 625.13 700.55 606.7 691.2 588.26 680.86 569.83 670.45 551.39 660.87 532.96 652.97 514.52 647.42 496.09 644.72 477.65 645.1 459.22 648.52 440.78 654.7 422.35 663.09 403.92 672.95 385.48 683.42 367.05 693.6 348.61 702.59 330.18 709.61 311.74 714.04 293.31 715.49 274.87 713.85 256.44 709.25 238 702.09 219.57 693.01 201.14 682.79 182.7 672.32 164.27 662.53 145.83 654.26 127.4 648.23 125.61 631.32 121.84 614.41 117.42 597.5 113.91 580.58 112.55 563.67 113.82 546.76 117.27 529.84 121.69 512.93 125.5 496.02 127.38 479.11 126.64 462.19 123.56 445.28 119.22 428.37 115.15 411.45 112.79 394.54 112.98 377.63 115.65 360.72 119.85 343.8 124.1 326.89 126.9 309.98 127.27 293.06 125.06 276.15 121.07 259.24 116.69 242.33 113.49 225.41 112.58 208.5 114.29 191.59 118.02 174.67 122.44 157.76 126 140.85 127.44 123.94 126.25 107.02" stroke-dasharray="3 5" transform="rotate(9.619047619047619, 400, 400)" opacity="0.38"></path><path d="M142.16 122.51Q159.68 125.65 177.19 129.46 194.71 133.62 212.22 137.81 229.74 141.7 247.25 144.98 264.77 147.4 282.28 148.76 299.8 148.95 317.31 147.97 334.83 145.88 352.34 142.85 369.86 139.13 387.37 135 404.89 130.79 422.4 126.84 439.92 123.45 457.43 120.89 474.94 119.36 492.46 118.99 509.97 119.8 527.49 121.73 545 124.63 562.52 128.27 580.03 132.36 597.55 136.58 615.06 140.59 632.58 144.08 650.09 146.78 667.61 148.47 685.12 149.02 702.64 148.38 698.61 165.6 684.15 182.83 663.89 200.05 644.3 217.27 631.65 234.49 629.98 251.71 639.83 268.94 658.04 286.16 678.8 303.38 695.46 320.6 702.71 337.82 698.21 355.04 683.41 372.27 663.05 389.49 643.62 406.71 631.35 423.93 630.16 441.15 640.42 458.38 658.86 475.6 679.58 492.82 695.96 510.04 702.75 527.26 697.79 544.49 682.67 561.71 662.21 578.93 642.96 596.15 631.08 613.37 630.36 630.6 641.03 647.82 659.69 665.04 679.72 691.61 661.71 699.69 644.35 695.76 626.98 689.48 609.62 681.35 592.25 672 574.89 662.19 557.52 652.67 540.16 644.2 522.8 637.46 505.43 632.96 488.07 631.07 470.7 631.93 453.34 635.48 435.97 641.44 418.61 649.34 401.25 658.54 383.88 668.34 366.52 677.95 349.15 686.62 331.79 693.66 314.42 698.52 297.06 700.81 279.7 700.36 262.33 697.2 244.97 691.57 227.6 683.93 210.24 674.88 192.87 665.12 175.51 655.43 158.15 646.58 140.78 639.25 137.2 623.11 132.59 606.96 128.43 590.81 126.05 574.66 126.21 558.51 128.86 542.36 133.15 526.22 137.71 510.07 141.08 493.92 142.19 477.77 140.67 461.62 137.02 445.47 132.41 429.33 128.29 413.18 126.01 397.03 126.27 380.88 129.01 364.73 133.34 348.58 137.88 332.44 141.18 316.29 142.18 300.14 140.56 283.99 136.85 267.84 132.22 251.69 128.16 235.55 125.97 219.4 126.34 203.25 129.16 187.1 133.52 170.95 138.04 154.8 141.26 138.66 142.16 122.51" stroke-dasharray="5 0" transform="rotate(14.428571428571427, 400, 400)" opacity="0.90"></path><path d="M156.27 138.79Q172.81 142.43 189.34 146.45 205.87 150.59 222.4 154.54 238.94 158.03 255.47 160.81 272 162.68 288.54 163.51 305.07 163.24 321.6 161.89 338.13 159.56 354.67 156.4 371.2 152.66 387.73 148.58 404.26 144.46 420.8 140.59 437.33 137.24 453.86 134.66 470.39 133.02 486.93 132.45 503.46 132.97 519.99 134.56 536.52 137.1 553.06 140.41 569.59 144.26 586.12 148.37 602.66 152.46 619.19 156.23 635.72 159.42 652.25 161.8 671.1 171.53 655.36 196.2 636.33 212.54 621.81 228.88 615.97 245.22 620.5 261.56 634.1 277.9 652.84 294.24 671.34 310.58 684.28 326.92 687.92 343.26 681.22 359.6 666.12 375.94 646.95 392.28 629.23 408.62 618.06 424.96 616.66 441.3 625.43 457.64 641.84 473.98 661.18 490.32 677.87 506.66 687.12 523 686.25 539.33 675.53 555.67 658.04 572.01 638.81 588.35 623.37 604.69 616.17 621.03 619.28 637.37 631.8 653.71 636.03 677.58 604.41 670.24 588.26 661.89 572.11 652.83 555.96 643.72 539.81 635.19 523.66 627.85 507.51 622.23 491.36 618.71 475.21 617.55 459.06 618.83 442.92 622.45 426.77 628.18 410.62 635.59 394.47 644.16 378.32 653.28 362.17 662.32 346.02 670.62 329.87 677.61 313.72 682.78 297.57 685.77 281.42 686.36 265.27 684.53 249.12 680.38 232.97 674.23 216.82 666.5 200.67 657.75 184.52 648.58 168.37 639.66 152.22 631.61 147.53 616.21 142.98 600.81 139.87 585.41 139.09 570.01 140.88 554.61 144.72 539.21 149.5 523.81 153.84 508.41 156.51 493.01 156.72 477.61 154.42 462.21 150.28 446.81 145.47 431.41 141.39 416 139.22 400.6 139.56 385.2 142.34 369.8 146.74 354.4 151.5 339 155.26 323.6 156.92 308.2 156.01 292.8 152.8 277.4 148.21 262 143.55 246.6 140.17 231.2 139.05 215.8 140.5 200.4 144.1 185 148.83 169.6 153.32 154.2 156.27 138.79" stroke-dasharray="4 4" transform="rotate(19.238095238095237, 400, 400)" opacity="0.74"></path><path d="M168.23 155.8Q183.61 159.69 199 163.73 214.39 167.67 229.78 171.24 245.17 174.23 260.56 176.44 275.94 177.74 291.33 178.05 306.72 177.34 322.11 175.66 337.5 173.12 352.88 169.87 368.27 166.13 383.66 162.12 399.05 158.11 414.44 154.34 429.83 151.05 445.21 148.46 460.6 146.73 475.99 145.95 491.38 146.2 506.77 147.44 522.16 149.6 537.54 152.55 552.93 156.09 568.32 160.01 583.71 164.05 599.1 167.96 614.48 171.5 629.87 174.43 644.86 184.9 626.6 208.65 611.67 224.08 603.52 239.5 604.25 254.92 613.66 270.35 629.33 285.77 647.23 301.19 662.76 316.62 671.91 332.04 672.33 347.46 663.92 362.89 648.83 378.31 630.95 393.73 614.89 409.16 604.77 424.58 603.2 440.01 610.59 455.43 625.03 470.85 642.81 486.28 659.35 501.7 670.39 517.12 673.09 532.55 666.76 547.97 653.03 563.39 635.43 578.82 618.48 594.24 606.56 609.67 602.73 625.09 607.98 640.51 607.92 660.2 578.78 650.59 563.9 642.33 549.01 633.8 534.13 625.54 519.25 618.06 504.37 611.84 489.49 607.28 474.6 604.66 459.72 604.14 444.84 605.77 429.96 609.44 415.08 614.91 400.19 621.84 385.31 629.79 370.43 638.26 355.55 646.71 340.67 654.62 325.78 661.47 310.9 666.84 296.02 670.38 281.14 671.88 266.26 671.23 251.37 668.48 236.49 663.81 221.61 657.5 206.73 649.96 191.85 641.67 176.96 633.14 162.08 624.91 157.31 610.25 153.74 595.59 152.3 580.93 153.35 566.27 156.63 551.61 161.29 536.95 166.13 522.29 169.91 507.64 171.65 492.98 170.91 478.32 167.87 463.66 163.32 449 158.43 434.34 154.46 419.68 152.43 405.02 152.86 390.36 155.64 375.7 160.06 361.04 164.98 346.38 169.13 331.72 171.44 317.06 171.32 302.4 168.81 287.74 164.54 273.08 159.61 258.42 155.3 243.76 152.71 229.1 152.51 214.44 154.75 199.78 158.86 185.12 163.77 170.46 168.23 155.8" stroke-dasharray="3 6" transform="rotate(24.047619047619047, 400, 400)" opacity="0.61"></path><path d="M178.22 173.37Q192.38 177.3 206.54 181.15 220.7 184.72 234.86 187.79 249.02 190.21 263.18 191.83 277.34 192.56 291.5 192.36 305.66 191.24 319.82 189.27 333.98 186.56 348.14 183.26 362.3 179.54 376.46 175.63 390.62 171.74 404.78 168.09 418.94 164.88 433.1 162.29 447.26 160.47 461.42 159.52 475.58 159.5 489.74 160.4 503.9 162.17 518.06 164.72 532.22 167.9 546.38 171.53 560.54 175.41 574.7 179.33 588.86 183.06 603.02 186.39 616 197.39 600.42 220.12 591.39 234.6 589.82 249.08 596.06 263.55 608.68 278.03 624.81 292.51 640.74 306.99 652.85 321.47 658.37 335.95 656.02 350.43 646.36 364.91 631.58 379.39 615.07 393.87 600.6 408.35 591.48 422.83 589.79 437.31 595.91 451.79 608.46 466.27 624.55 480.75 640.52 495.23 652.71 509.71 658.34 524.19 656.12 538.67 646.55 553.15 631.83 567.62 615.32 582.1 600.79 596.58 591.57 611.06 589.75 625.54 595.17 645.24 580.92 644.92 567.26 638.21 553.61 630.71 539.95 622.83 526.29 615.01 512.64 607.7 498.98 601.31 485.32 596.18 471.67 592.61 458.01 590.8 444.35 590.86 430.7 592.77 417.04 596.42 403.38 601.63 389.73 608.09 376.07 615.43 362.41 623.26 348.76 631.13 335.1 638.6 321.44 645.25 307.79 650.71 294.13 654.68 280.47 656.92 266.82 657.32 253.16 655.85 239.5 652.59 225.85 647.74 212.19 641.55 198.53 634.38 184.88 626.62 171.22 618.72 167.45 604.8 165.63 590.89 166.17 576.97 168.97 563.05 173.37 549.14 178.37 535.22 182.83 521.3 185.72 507.38 186.4 493.47 184.69 479.55 181 465.63 176.16 451.72 171.29 437.8 167.49 423.88 165.64 409.97 166.15 396.05 168.91 382.13 173.29 368.21 178.29 354.3 182.77 340.38 185.69 326.46 186.4 312.55 184.73 298.63 181.07 284.71 176.24 270.79 171.36 256.88 167.54 242.96 165.65 229.04 166.12 215.13 168.86 201.21 173.22 187.29 178.22 173.37" stroke-dasharray="3 3" transform="rotate(28.857142857142854, 400, 400)" opacity="0.48"></path><path d="M187.02 191.34Q199.96 195.08 212.9 198.56 225.83 201.62 238.77 204.11 251.71 205.9 264.65 206.91 277.58 207.08 290.52 206.42 303.46 204.94 316.4 202.73 329.34 199.89 342.27 196.56 355.21 192.91 368.15 189.11 381.09 185.36 394.03 181.84 406.96 178.72 419.9 176.15 432.84 174.27 445.78 173.16 458.71 172.88 471.65 173.45 484.59 174.83 497.53 176.96 510.47 179.73 523.4 183 536.34 186.62 549.28 190.41 562.22 194.18 575.15 197.74 587.89 209 578.84 230.59 576.26 244.1 580.48 257.62 590.64 271.13 604.69 284.65 619.82 298.16 632.97 311.68 641.49 325.19 643.67 338.71 639.07 352.22 628.61 365.74 614.41 379.25 599.32 392.77 586.37 406.28 578.19 419.8 576.41 433.31 581.39 446.83 592.13 460.34 606.47 473.86 621.52 487.37 634.25 500.89 642.09 514.4 643.47 527.92 638.12 541.43 627.09 554.95 612.63 568.46 597.63 581.98 585.13 595.49 577.63 609 573.24 626.74 557.28 624.86 544.74 618.03 532.19 610.8 519.64 603.53 507.09 596.57 494.54 590.28 481.99 584.96 469.45 580.88 456.9 578.23 444.35 577.14 431.8 577.68 419.25 579.8 406.7 583.42 394.15 588.34 381.61 594.34 369.06 601.1 356.51 608.3 343.96 615.59 331.41 622.6 318.86 628.98 306.32 634.44 293.77 638.69 281.22 641.52 268.67 642.8 256.12 642.46 243.57 640.53 231.03 637.09 218.48 632.31 205.93 626.43 193.38 619.75 180.83 612.58 178.93 599.42 179.25 586.25 181.74 573.09 185.89 559.93 190.87 546.76 195.67 533.6 199.33 520.44 201.11 507.27 200.65 494.11 198.04 480.94 193.82 467.78 188.83 454.62 184.07 441.45 180.5 428.29 178.85 415.13 179.44 401.96 182.16 388.8 186.45 375.63 191.46 362.47 196.17 349.31 199.64 336.14 201.17 322.98 200.45 309.82 197.62 296.65 193.26 283.49 188.24 270.32 183.57 257.16 180.2 244 178.8 230.83 179.65 217.67 182.59 204.51 187.02 191.34" stroke-dasharray="5 5" transform="rotate(33.666666666666664, 400, 400)" opacity="0.40"></path><path d="M195.83 209.48Q207.63 212.82 219.43 215.78 231.23 218.24 243.03 220.08 254.83 221.23 266.63 221.64 278.43 221.3 290.23 220.21 302.03 218.42 313.83 216.02 325.63 213.09 337.43 209.78 349.24 206.22 361.04 202.56 372.84 198.97 384.64 195.59 396.44 192.57 408.24 190.04 420.04 188.11 431.84 186.87 443.64 186.36 455.44 186.6 467.24 187.6 479.04 189.3 490.84 191.63 502.64 194.49 514.44 197.76 526.24 201.29 538.04 204.95 549.84 208.56 563.59 219.78 562.97 240.13 566.22 252.66 574.7 265.2 586.92 277.74 600.74 290.28 613.73 302.82 623.6 315.35 628.61 327.89 627.89 340.43 621.57 352.97 610.75 365.5 597.33 378.04 583.68 390.58 572.2 403.12 564.9 415.65 563.06 428.19 567.02 440.73 576.07 453.27 588.62 465.81 602.47 478.34 615.18 490.88 624.52 503.42 628.84 515.96 627.39 528.49 620.42 541.03 609.16 553.57 595.58 566.11 582.08 578.65 571.02 591.18 558 607.17 540.05 604.36 528.45 597.74 516.86 591.05 505.26 584.56 493.66 578.57 482.06 573.33 470.47 569.05 458.87 565.94 447.27 564.12 435.68 563.67 424.08 564.6 412.48 566.89 400.88 570.42 389.29 575.05 377.69 580.59 366.09 586.78 354.49 593.37 342.9 600.07 331.3 606.6 319.7 612.67 308.11 618.03 296.51 622.44 284.91 625.71 273.31 627.71 261.72 628.34 250.12 627.59 238.52 625.48 226.92 622.1 215.33 617.6 203.73 612.17 192.13 606.05 192.53 593.66 194.95 581.26 198.95 568.87 203.85 556.48 208.76 544.09 212.84 531.69 215.37 519.3 215.89 506.91 214.33 494.51 210.94 482.12 206.34 469.73 201.32 457.34 196.78 444.94 193.5 432.55 192.07 420.16 192.73 407.76 195.38 395.37 199.54 382.98 204.48 370.59 209.34 358.19 213.26 345.8 215.55 333.41 215.81 321.02 213.99 308.62 210.42 296.23 205.71 283.84 200.71 271.44 196.28 259.05 193.21 246.66 192.03 234.27 192.96 221.87 195.83 209.48" stroke-dasharray="2 5" transform="rotate(38.476190476190474, 400, 400)" opacity="0.85"></path><path d="M205.99 227.55Q216.79 230.33 227.59 232.66 238.39 234.45 249.18 235.62 259.98 236.14 270.78 235.99 281.58 235.18 292.38 233.72 303.17 231.69 313.97 229.14 324.77 226.19 335.57 222.93 346.36 219.48 357.16 215.98 367.96 212.56 378.76 209.34 389.56 206.44 400.35 203.96 411.15 202.01 421.95 200.65 432.75 199.93 443.55 199.88 454.34 200.5 465.14 201.77 475.94 203.65 486.74 206.05 497.54 208.9 508.33 212.08 519.13 215.48 529.93 218.98 540.73 222.44 551.53 225.73 549.76 237.29 552.89 248.84 560.45 260.4 571.27 271.96 583.73 283.51 595.92 295.07 605.99 306.63 612.43 318.18 614.23 329.74 611.15 341.3 603.63 352.85 592.83 364.41 580.38 375.97 568.18 387.52 558.08 399.08 551.6 410.64 549.75 422.19 552.79 433.75 560.27 445.3 571.05 456.86 583.49 468.42 595.7 479.97 605.84 491.53 612.35 503.09 614.25 514.64 611.25 526.2 603.81 537.76 593.05 549.31 580.62 560.87 568.39 572.43 558.23 583.98 551.69 595.54 540.88 589.77 530.08 583.71 519.28 577.59 508.48 571.64 497.68 566.06 486.88 561.08 476.08 556.87 465.28 553.59 454.48 551.37 443.68 550.28 432.87 550.36 422.07 551.62 411.27 554 400.47 557.42 389.67 561.76 378.87 566.84 368.07 572.48 357.27 578.47 346.47 584.6 335.67 590.63 324.87 596.34 314.06 601.52 303.26 605.97 292.46 609.54 281.66 612.08 270.86 613.51 260.06 613.77 249.26 612.86 238.46 610.8 227.66 607.68 216.86 603.6 206.05 598.72 208.63 587.12 212.64 575.52 217.45 563.92 222.35 552.32 226.59 540.72 229.52 529.12 230.7 517.53 229.95 505.93 227.39 494.33 223.4 482.73 218.58 471.13 213.68 459.53 209.44 447.93 206.49 436.33 205.29 424.73 206.02 413.13 208.57 401.53 212.55 389.93 217.36 378.34 222.26 366.74 226.52 355.14 229.48 343.54 230.7 331.94 229.98 320.34 227.45 308.74 223.48 297.14 218.68 285.54 213.77 273.94 209.51 262.34 206.53 250.74 205.3 239.15 205.99 227.55" stroke-dasharray="4 0" transform="rotate(43.285714285714285, 400, 400)" opacity="0.38"></path><path d="M218.67 245.29Q228.61 247.41 238.55 249.04 248.49 250.13 258.43 250.65 268.38 250.58 278.32 249.93 288.26 248.7 298.2 246.95 308.14 244.73 318.08 242.11 328.03 239.16 337.97 235.99 347.91 232.69 357.85 229.38 367.79 226.14 377.73 223.09 387.68 220.32 397.62 217.92 407.56 215.96 417.5 214.51 427.44 213.61 437.38 213.3 447.33 213.57 457.27 214.42 467.21 215.84 477.15 217.76 487.09 220.13 497.03 222.87 506.98 225.91 516.92 229.13 526.86 232.45 536.8 235.75 540.45 246.33 547.67 256.91 557.52 267.49 568.74 278.07 579.85 288.65 589.43 299.23 596.23 309.81 599.37 320.39 598.44 330.97 593.56 341.54 585.37 352.12 574.92 362.7 563.58 373.28 552.81 383.86 544 394.44 538.31 405.02 536.47 415.6 538.72 426.18 544.76 436.76 553.81 447.34 564.71 457.91 576.03 468.49 586.31 479.07 594.21 489.65 598.72 500.23 599.24 510.81 595.71 521.39 588.59 531.97 578.79 542.55 567.6 553.13 556.46 563.71 546.81 574.29 536.69 568.76 526.57 563.21 516.45 557.81 506.33 552.73 496.21 548.13 486.09 544.16 475.97 540.95 465.85 538.59 455.73 537.15 445.6 536.7 435.48 537.23 425.36 538.73 415.24 541.16 405.12 544.43 395 548.45 384.88 553.09 374.76 558.19 364.64 563.61 354.52 569.17 344.4 574.68 334.28 579.99 324.15 584.92 314.03 589.31 303.91 593.03 293.79 595.96 283.67 598.01 273.55 599.11 263.43 599.22 253.31 598.35 243.19 596.52 230.07 586.63 231.83 568.68 236.61 557.9 240.79 547.12 243.83 536.34 245.34 525.56 245.12 514.78 243.19 504 239.82 493.22 235.43 482.44 230.59 471.66 225.94 460.88 222.07 450.1 219.49 439.32 218.53 428.54 219.31 417.76 221.75 406.98 225.51 396.2 230.11 385.42 234.95 374.65 239.42 363.87 242.92 353.09 245 342.31 245.4 331.53 244.06 320.75 241.15 309.97 237.06 299.19 232.31 288.41 227.52 277.63 223.31 266.85 220.23 256.07 218.67 245.29" stroke-dasharray="4 5" transform="rotate(48.095238095238095, 400, 400)" opacity="0.82"></path><path d="M234.49 262.46Q243.7 263.85 252.91 264.77 262.11 265.19 271.32 265.1 280.53 264.51 289.73 263.42 298.94 261.87 308.15 259.9 317.35 257.56 326.56 254.91 335.77 252.03 344.97 248.98 354.18 245.86 363.38 242.74 372.59 239.7 381.8 236.84 391 234.21 400.21 231.9 409.42 229.97 418.62 228.45 427.83 227.41 437.04 226.86 446.24 226.81 455.45 227.28 464.66 228.24 473.86 229.68 483.07 231.54 492.28 233.79 501.48 236.37 510.69 239.2 519.9 242.21 529.1 245.32 536.36 254.94 545.54 264.55 555.65 274.16 565.57 283.77 574.23 293.39 580.68 303 584.22 312.61 584.46 322.22 581.38 331.83 575.3 341.45 566.9 351.06 557.09 360.67 546.95 370.28 537.57 379.9 529.99 389.51 525.02 399.12 523.22 408.73 524.78 418.35 529.52 427.96 536.94 437.57 546.22 447.18 556.35 456.8 566.22 466.41 574.75 476.02 581.03 485.63 584.35 495.25 584.35 504.86 581.05 514.47 574.79 524.08 566.26 533.69 556.39 543.31 546.26 552.92 536.77 547.94 527.27 543.12 517.78 538.59 508.28 534.47 498.79 530.86 489.29 527.87 479.8 525.58 470.3 524.04 460.81 523.29 451.31 523.36 441.82 524.24 432.32 525.92 422.83 528.34 413.33 531.44 403.84 535.14 394.34 539.34 384.85 543.93 375.35 548.78 365.86 553.78 356.36 558.78 346.87 563.65 337.37 568.27 327.88 572.51 318.38 576.26 308.89 579.41 299.39 581.89 289.9 583.63 280.4 584.59 270.91 584.73 261.41 584.05 249.51 576.49 251.66 560.48 255.6 550.54 258.5 540.61 260.02 530.67 260.02 520.74 258.49 510.81 255.59 500.87 251.64 490.94 247.08 481 242.4 471.07 238.11 461.14 234.69 451.2 232.49 441.27 231.77 431.33 232.61 421.4 234.9 411.47 238.4 401.53 242.74 391.6 247.43 381.66 251.96 371.73 255.84 361.8 258.65 351.86 260.07 341.93 259.96 331.99 258.33 322.06 255.35 312.13 251.34 302.19 246.76 292.26 242.09 282.32 237.85 272.39 234.49 262.46" stroke-dasharray="0 3" transform="rotate(52.904761904761905, 400, 400)" opacity="0.91"></path><path d="M253.36 278.83Q270.44 279.74 287.52 278.93 304.61 276.47 321.69 272.57 338.77 267.56 355.86 261.9 372.94 256.07 390.02 250.59 407.1 245.92 424.19 242.49 441.27 240.58 458.35 240.37 475.44 241.87 492.52 244.96 509.6 249.36 526.69 254.68 544.31 272.01 560.41 289.33 569.3 306.66 567.84 323.98 556.54 341.3 539.4 358.63 522.47 375.95 511.73 393.27 510.97 410.6 520.47 427.92 536.86 445.24 554.36 462.57 566.79 479.89 569.75 497.21 562.2 514.54 546.81 531.86 529.09 523.7 511.38 516.96 493.67 512.24 475.95 509.93 458.24 510.26 440.53 513.18 422.81 518.44 405.1 525.59 387.39 533.99 369.67 542.92 351.96 551.59 334.25 559.25 316.53 565.23 298.82 569 281.11 570.24 263.39 568.84 271.07 550.72 274.83 532.59 273.36 514.47 267.16 496.34 258.43 478.21 250.26 460.09 245.52 441.96 245.9 423.84 251.25 405.71 259.7 387.58 268.25 369.46 273.88 351.33 274.61 333.21 270.18 315.08 262.15 296.96 253.36 278.83" stroke-dasharray="1 2" transform="rotate(57.71428571428571, 400, 400)" opacity="0.65"></path><path d="M274.36 294.22Q290.13 293.87 305.9 292.11 321.67 289.07 337.44 284.96 353.21 280.07 368.98 274.75 384.75 269.38 400.52 264.34 416.29 259.98 432.06 256.61 447.83 254.47 463.6 253.72 479.37 254.4 495.14 256.47 510.91 259.79 526.68 264.11 541.71 279.57 552.21 295.03 555.17 310.49 549.73 325.95 537.46 341.42 521.89 356.88 507.51 372.34 498.44 387.8 497.3 403.26 504.42 418.72 517.75 434.19 533.45 449.65 547.01 465.11 554.52 480.57 553.82 496.03 545.11 511.5 528.81 505.16 512.51 500.31 496.2 497.27 479.9 496.27 463.6 497.37 447.29 500.51 430.99 505.44 414.69 511.84 398.39 519.23 382.08 527.11 365.78 534.9 349.48 542.07 333.17 548.1 316.87 552.56 300.57 555.14 284.27 555.65 288.94 539.31 289.32 522.97 285.28 506.63 278 490.29 269.56 473.95 262.4 457.62 258.58 441.28 259.19 424.94 264.06 408.6 271.79 392.26 280.16 375.92 286.75 359.58 289.67 343.24 288.08 326.9 282.44 310.56 274.36 294.22" stroke-dasharray="3 3" transform="rotate(62.523809523809526, 400, 400)" opacity="0.71"></path><path d="M295.99 308.5Q310.35 307.1 324.72 304.63 339.08 301.23 353.45 297.09 367.81 292.44 382.18 287.54 396.54 282.66 410.91 278.09 425.27 274.07 439.64 270.83 454 268.55 468.36 267.36 482.73 267.33 497.09 268.45 511.46 270.67 525.82 273.87 535.82 287.51 540.38 301.15 538.44 314.8 530.46 328.44 518.26 342.08 504.63 355.73 492.68 369.37 485.15 383.01 483.75 396.66 488.81 410.3 499.17 423.94 512.46 437.59 525.64 451.23 535.71 464.87 532.09 483.1 509.12 484.56 494.42 482.98 479.72 483.02 465.02 484.69 450.32 487.89 435.62 492.44 420.92 498.09 406.22 504.51 391.52 511.36 376.82 518.24 362.12 524.77 347.42 530.58 332.72 535.35 318.02 538.82 303.32 540.78 304.38 526.26 301.7 511.74 295.88 497.23 288.26 482.71 280.58 468.19 274.6 453.67 271.67 439.16 272.48 424.64 276.83 410.12 283.74 395.6 291.62 381.09 298.67 366.57 303.28 352.05 304.39 337.53 301.76 323.02 295.99 308.5" stroke-dasharray="1 4" transform="rotate(67.33333333333333, 400, 400)" opacity="0.58"></path><path d="M316.39 321.58Q329.19 319.43 341.99 316.52 354.79 312.99 367.59 308.99 380.39 304.68 393.19 300.26 405.99 295.92 418.79 291.84 431.59 288.19 444.39 285.14 457.19 282.81 469.99 281.3 482.79 280.68 495.59 280.98 508.39 282.18 521.19 284.24 525.41 296.1 524.81 307.97 519.49 319.84 510.39 331.71 499.12 343.57 487.65 355.44 477.99 367.31 471.85 379.18 470.31 391.04 473.64 402.91 481.24 414.78 491.79 426.65 503.44 438.51 514.12 450.38 517.34 466.8 499.8 469.74 486.89 469.34 473.99 470.17 461.08 472.19 448.18 475.33 435.27 479.43 422.37 484.34 409.46 489.83 396.56 495.67 383.65 501.61 370.75 507.4 357.84 512.78 344.94 517.53 332.03 521.43 319.13 524.34 316.87 511.66 312 498.99 305.37 486.32 298.15 473.65 291.6 460.98 286.88 448.3 284.82 435.63 285.77 422.96 289.58 410.29 295.57 397.62 302.69 384.94 309.69 372.27 315.34 359.6 318.63 346.93 319.01 334.26 316.39 321.58" stroke-dasharray="4 1" transform="rotate(72.14285714285714, 400, 400)" opacity="0.16"></path><path d="M333.89 333.47Q344.95 330.88 356.02 327.81 367.08 324.37 378.14 320.66 389.2 316.81 400.26 312.93 411.32 309.15 422.38 305.59 433.45 302.35 444.51 299.54 455.57 297.26 466.63 295.56 477.69 294.52 488.75 294.15 504.95 300.03 505.9 315.73 498.88 325.86 489.93 335.99 480.21 346.12 470.98 356.25 463.44 366.38 458.56 376.51 456.98 386.64 458.91 396.77 464.08 406.9 471.84 417.03 481.18 427.16 490.88 437.29 485.57 454.08 462.58 457.67 451.61 459.86 440.64 462.8 429.67 466.42 418.7 470.59 407.73 475.18 396.76 480.05 385.79 485.05 374.83 490.01 363.86 494.78 352.89 499.22 341.92 503.17 330.95 506.51 326.44 495.7 320.58 484.88 314.12 474.07 307.9 463.25 302.74 452.44 299.29 441.62 298.01 430.81 299.06 419.99 302.31 409.18 307.33 398.36 313.48 387.55 319.95 376.73 325.91 365.92 330.58 355.1 333.36 344.29 333.89 333.47" stroke-dasharray="1 0" transform="rotate(76.95238095238095, 400, 400)" opacity="0.79"></path><path d="M347.37 344.24Q365.74 338.57 384.11 332.16 402.49 325.55 420.86 319.34 439.23 314.05 457.6 310.16 480.22 316.3 469.47 341.46 454.67 358.3 445.27 375.15 444.61 392 452.92 408.85 467.26 425.7 482.56 442.54 464.61 442.84 446.66 445.51 428.71 450.31 410.76 456.84 392.81 464.51 374.86 472.66 356.91 480.58 338.96 487.58 328.04 469.66 317.81 451.74 311.88 433.83 312.36 415.91 319.06 397.99 329.62 380.07 340.32 362.15 347.37 344.24" stroke-dasharray="6 3" transform="rotate(81.76190476190476, 400, 400)" opacity="0.77"></path><path d="M356.61 354.01Q371.1 348.89 385.59 343.49 400.08 338.13 414.56 333.09 429.05 328.66 443.54 325.09 459.81 328.67 449.41 348.23 438.72 361.71 431.98 375.19 430.73 388.67 435.25 402.15 443.46 423.14 428.38 433.62 414.37 437.85 400.36 443.09 386.35 449.05 372.33 455.4 358.32 461.79 344.31 467.85 335.23 453.62 328.15 439.39 324.69 425.16 325.65 410.93 330.8 396.7 338.96 382.47 348.28 368.24 356.61 354.01" stroke-dasharray="0 5" transform="rotate(86.57142857142857, 400, 400)" opacity="0.15"></path><path d="M362.44 363Q373.07 358.87 383.69 354.71 394.32 350.66 404.94 346.84 415.56 343.37 426.19 340.36 437.67 342.07 430.07 356.36 423.16 366.49 418.69 376.62 417.24 386.75 419 396.88 422.18 413.11 410.37 421.99 400.12 425.4 389.87 429.34 379.63 433.67 369.38 438.27 351.11 440.04 339.2 426.51 337.76 415.92 338.94 405.34 342.59 394.75 348.24 384.17 355.16 373.59 362.44 363" stroke-dasharray="1 1" transform="rotate(91.38095238095238, 400, 400)" opacity="0.45"></path><path d="M366.57 371.47Q380.38 365.86 394.18 360.59 409.86 360.87 405.4 379.36 404.22 392.92 408.48 406.49 395.09 410.55 381.7 415.59 359.76 417.38 352.23 399.45 357.78 385.46 366.57 371.47" stroke-dasharray="0 1" transform="rotate(96.19047619047619, 400, 400)" opacity="0.08"></path></g></svg>